<svg xmlns="http://www.w3.org/2000/svg" xmlns:xlink="http://www.w3.org/1999/xlink" width="55" zoomAndPan="magnify" viewBox="0 0 30 30.000001" height="55" preserveAspectRatio="xMidYMid meet" version="1.0"><defs><clipPath id="50adc94fc1"><path d="M 4.839844 19.324219 L 18.195312 19.324219 L 18.195312 22.46875 L 4.839844 22.46875 Z M 4.839844 19.324219 " clip-rule="nonzero"/></clipPath><clipPath id="c32c8028bd"><path d="M 5 19 L 10 19 L 10 22.46875 L 5 22.46875 Z M 5 19 " clip-rule="nonzero"/></clipPath><clipPath id="4e5a48e5f0"><path d="M 4.839844 19.042969 L 22.417969 19.042969 L 22.417969 22.46875 L 4.839844 22.46875 Z M 4.839844 19.042969 " clip-rule="nonzero"/></clipPath><clipPath id="82bcbc9dd3"><path d="M 7 11 L 25.160156 11 L 25.160156 15 L 7 15 Z M 7 11 " clip-rule="nonzero"/></clipPath><clipPath id="9614e8ca6f"><path d="M 6 6.5 L 24 6.5 L 24 12 L 6 12 Z M 6 6.5 " clip-rule="nonzero"/></clipPath></defs><g clip-path="url(#50adc94fc1)"><path fill="#bf3b29" d="M 18.191406 21.558594 L 8.28125 22.46875 L 4.886719 19.808594 C 4.855469 19.800781 4.855469 19.753906 4.890625 19.75 C 5.453125 19.675781 9.953125 19.351562 10.027344 19.347656 C 10.113281 19.34375 18.191406 21.558594 18.191406 21.558594 " fill-opacity="1" fill-rule="nonzero"/></g><g clip-path="url(#c32c8028bd)"><path fill="#efe4dc" d="M 5.046875 19.078125 L 5.070312 19.75 L 8.5 22.425781 L 8.75 22.136719 L 9.070312 21.710938 L 5.046875 19.078125 " fill-opacity="1" fill-rule="nonzero"/></g><g clip-path="url(#4e5a48e5f0)"><path fill="#bf3b29" d="M 4.867188 19.050781 L 18.242188 19.652344 L 22.226562 20.839844 C 22.324219 20.867188 22.398438 21.019531 22.40625 21.125 L 22.417969 21.304688 C 22.425781 21.441406 22.324219 21.558594 22.1875 21.566406 L 8.28125 22.46875 C 8.28125 22.46875 8.578125 22.359375 8.484375 21.996094 C 8.464844 21.917969 8.375 21.832031 8.375 21.832031 C 8.375 21.832031 5.5 19.289062 4.863281 19.109375 C 4.828125 19.097656 4.832031 19.050781 4.867188 19.050781 " fill-opacity="1" fill-rule="nonzero"/></g><path fill="#243558" d="M 18.980469 20.800781 L 9.074219 21.710938 L 5.625 19.039062 C 5.578125 19.011719 5.59375 18.984375 5.628906 18.980469 C 6.191406 18.910156 10.742188 18.59375 10.816406 18.589844 C 10.902344 18.582031 18.980469 20.800781 18.980469 20.800781 " fill-opacity="1" fill-rule="nonzero"/><path fill="#efe4dc" d="M 5.835938 18.320312 L 5.859375 18.988281 L 9.289062 21.667969 L 9.542969 21.375 L 9.859375 20.949219 L 5.835938 18.320312 " fill-opacity="1" fill-rule="nonzero"/><path fill="#243558" d="M 5.679688 18.183594 L 19.035156 18.890625 L 23.015625 20.078125 C 23.117188 20.109375 23.191406 20.261719 23.199219 20.363281 L 23.207031 20.542969 C 23.214844 20.679688 23.113281 20.796875 22.976562 20.804688 L 9.074219 21.710938 C 9.074219 21.710938 9.367188 21.597656 9.273438 21.234375 C 9.253906 21.160156 9.164062 21.070312 9.164062 21.070312 C 9.164062 21.070312 6.210938 18.480469 5.648438 18.253906 C 5.617188 18.238281 5.644531 18.1875 5.679688 18.183594 " fill-opacity="1" fill-rule="nonzero"/><path fill="#dd8d16" d="M 9.128906 20.84375 L 5.984375 18.167969 C 5.886719 18.085938 5.929688 18.019531 5.992188 18.015625 L 18.96875 18.058594 L 23.171875 19.769531 L 9.128906 20.84375 " fill-opacity="1" fill-rule="nonzero"/><path fill="#efe4dc" d="M 6.332031 15.851562 C 6.535156 16.765625 6.421875 17.953125 6.234375 18.152344 C 6.234375 18.152344 8.691406 20.132812 9.332031 20.699219 L 9.816406 18.332031 L 6.332031 15.851562 " fill-opacity="1" fill-rule="nonzero"/><path fill="#dd8d16" d="M 6.226562 15.894531 L 9.089844 18.363281 C 9.105469 18.375 9.121094 18.382812 9.128906 18.402344 C 9.394531 19.027344 9.359375 19.425781 9.375 19.785156 C 9.40625 20.558594 9.015625 20.757812 9.015625 20.757812 L 9.144531 20.871094 L 23.207031 19.941406 C 23.539062 19.9375 23.542969 19.820312 23.566406 19.648438 C 23.589844 19.480469 23.847656 17.609375 23.507812 17.367188 C 23.34375 17.25 18.390625 15.636719 18.382812 15.636719 L 6.226562 15.695312 C 6.152344 15.703125 6.15625 15.878906 6.226562 15.894531 " fill-opacity="1" fill-rule="nonzero"/><path fill="#bf3b29" d="M 21.554688 18.351562 L 24.394531 15.980469 C 24.535156 15.851562 24.421875 15.832031 24.28125 15.835938 L 11.960938 15.9375 L 7.824219 17.257812 L 21.554688 18.351562 " fill-opacity="1" fill-rule="nonzero"/><path fill="#efe4dc" d="M 24.324219 14.285156 C 24.113281 15.015625 24.074219 15.710938 24.253906 15.875 C 24.253906 15.875 21.730469 18.125 21.167969 18.273438 L 20.863281 16.210938 L 24.324219 14.285156 " fill-opacity="1" fill-rule="nonzero"/><path fill="#bf3b29" d="M 24.355469 14.308594 L 21.613281 16.257812 C 21.597656 16.265625 21.582031 16.277344 21.574219 16.289062 C 21.304688 16.785156 21.335938 17.105469 21.3125 17.390625 C 21.273438 18.007812 21.625 18.207031 21.625 18.207031 L 21.53125 18.324219 L 7.910156 17.582031 C 7.585938 17.570312 7.585938 17.480469 7.5625 17.339844 C 7.542969 17.207031 7.320312 15.730469 7.65625 15.539062 C 7.816406 15.445312 10.882812 14.113281 10.890625 14.113281 L 24.367188 14.167969 C 24.4375 14.175781 24.425781 14.296875 24.355469 14.308594 " fill-opacity="1" fill-rule="nonzero"/><path fill="#dd8d16" d="M 9.113281 16.300781 C 8.945312 16.300781 8.8125 16.433594 8.8125 16.597656 C 8.8125 16.765625 8.945312 16.898438 9.113281 16.898438 C 9.277344 16.898438 9.414062 16.765625 9.414062 16.597656 C 9.414062 16.433594 9.277344 16.300781 9.113281 16.300781 Z M 20.347656 16.964844 C 20.183594 16.964844 20.050781 17.097656 20.050781 17.261719 C 20.050781 17.429688 20.183594 17.5625 20.347656 17.5625 C 20.515625 17.5625 20.648438 17.429688 20.648438 17.261719 C 20.648438 17.097656 20.515625 16.964844 20.347656 16.964844 Z M 9.894531 16.460938 C 9.894531 16.507812 9.929688 16.542969 9.972656 16.546875 L 19.546875 17.125 C 19.59375 17.125 19.632812 17.089844 19.636719 17.042969 C 19.640625 16.996094 19.605469 16.957031 19.558594 16.953125 L 9.984375 16.375 C 9.9375 16.371094 9.898438 16.410156 9.894531 16.457031 C 9.894531 16.457031 9.894531 16.460938 9.894531 16.460938 Z M 9.894531 16.765625 C 9.898438 16.71875 9.9375 16.683594 9.984375 16.6875 L 19.558594 17.261719 C 19.605469 17.265625 19.640625 17.308594 19.636719 17.351562 C 19.632812 17.402344 19.59375 17.4375 19.546875 17.433594 L 9.972656 16.855469 C 9.929688 16.855469 9.894531 16.816406 9.894531 16.769531 C 9.894531 16.769531 9.894531 16.769531 9.894531 16.765625 " fill-opacity="1" fill-rule="nonzero"/><path fill="#243558" d="M 21.199219 16.152344 L 24.179688 13.816406 C 24.242188 13.804688 24.238281 13.703125 24.175781 13.703125 L 11.605469 13.902344 L 7.472656 15.128906 L 21.199219 16.152344 " fill-opacity="1" fill-rule="nonzero"/><path fill="#efe4dc" d="M 23.949219 12.257812 C 23.734375 12.9375 23.765625 13.621094 23.949219 13.769531 C 23.949219 13.769531 21.375 15.941406 20.8125 16.082031 L 20.507812 14.15625 L 23.949219 12.257812 " fill-opacity="1" fill-rule="nonzero"/><path fill="#243558" d="M 23.996094 12.246094 L 21.289062 14.285156 C 21.273438 14.292969 21.257812 14.300781 21.25 14.3125 C 20.980469 14.777344 21.011719 15.074219 20.992188 15.339844 C 20.949219 15.917969 21.289062 16.089844 21.289062 16.089844 L 21.199219 16.152344 L 7.46875 15.433594 C 7.148438 15.425781 7.144531 15.339844 7.121094 15.210938 C 7.101562 15.085938 6.832031 13.539062 7.167969 13.359375 C 7.328125 13.273438 10.183594 12.234375 12.015625 12.097656 L 23.996094 12.097656 C 24.070312 12.105469 24.066406 12.234375 23.996094 12.246094 " fill-opacity="1" fill-rule="nonzero"/><path fill="#486bbc" d="M 19.839844 14.257812 C 19.777344 14.589844 19.738281 14.9375 19.738281 15.273438 C 19.738281 15.523438 19.757812 15.765625 19.808594 15.984375 C 19.808594 15.992188 19.816406 15.996094 19.828125 16 L 20.03125 16.011719 C 20.046875 16.011719 20.058594 16 20.054688 15.988281 C 19.933594 15.496094 19.96875 14.851562 20.082031 14.273438 C 20.082031 14.261719 20.074219 14.253906 20.0625 14.253906 L 19.859375 14.242188 C 19.847656 14.242188 19.839844 14.25 19.839844 14.257812 Z M 18.917969 14.21875 C 18.804688 14.578125 18.769531 14.878906 18.769531 15.238281 C 18.769531 15.480469 18.78125 15.703125 18.839844 15.929688 C 18.84375 15.9375 18.851562 15.945312 18.859375 15.945312 L 19.511719 15.980469 C 19.527344 15.980469 19.535156 15.972656 19.53125 15.960938 C 19.402344 15.511719 19.402344 14.902344 19.574219 14.253906 C 19.578125 14.242188 19.570312 14.230469 19.554688 14.230469 L 18.941406 14.207031 C 18.929688 14.207031 18.921875 14.210938 18.917969 14.21875 Z M 18.363281 14.183594 L 18.566406 14.191406 C 18.578125 14.191406 18.585938 14.199219 18.585938 14.210938 C 18.472656 14.777344 18.433594 15.410156 18.542969 15.902344 C 18.542969 15.914062 18.535156 15.925781 18.519531 15.925781 L 18.316406 15.914062 C 18.304688 15.914062 18.296875 15.90625 18.296875 15.898438 C 18.253906 15.691406 18.238281 15.46875 18.238281 15.238281 C 18.238281 14.894531 18.277344 14.535156 18.34375 14.195312 C 18.34375 14.1875 18.351562 14.179688 18.363281 14.183594 " fill-opacity="1" fill-rule="nonzero"/><g clip-path="url(#82bcbc9dd3)"><path fill="#dd8d16" d="M 21.953125 14.351562 L 25.09375 11.679688 C 25.160156 11.664062 25.152344 11.527344 25.085938 11.523438 L 12.113281 11.566406 L 7.90625 13.277344 L 21.953125 14.351562 " fill-opacity="1" fill-rule="nonzero"/></g><path fill="#efe4dc" d="M 24.75 9.363281 C 24.546875 10.277344 24.660156 11.464844 24.847656 11.664062 C 24.847656 11.664062 22.386719 13.644531 21.746094 14.207031 L 21.265625 11.84375 L 24.75 9.363281 " fill-opacity="1" fill-rule="nonzero"/><path fill="#dd8d16" d="M 24.855469 9.402344 L 21.988281 11.871094 C 21.972656 11.882812 21.957031 11.894531 21.953125 11.910156 C 21.683594 12.535156 21.71875 12.933594 21.703125 13.292969 C 21.675781 14.066406 22.066406 14.269531 22.066406 14.269531 L 21.933594 14.378906 L 7.871094 13.617188 C 7.542969 13.609375 7.539062 13.496094 7.515625 13.320312 C 7.488281 13.15625 7.25 10.980469 7.589844 10.734375 C 7.753906 10.617188 12.488281 9.875 12.496094 9.875 L 24.855469 9.203125 C 24.925781 9.210938 24.925781 9.386719 24.855469 9.402344 " fill-opacity="1" fill-rule="nonzero"/><path fill="#bf3b29" d="M 11.933594 12.125 C 11.914062 12.351562 11.914062 12.582031 11.933594 12.808594 C 11.941406 12.925781 12.027344 13.023438 12.113281 13.023438 C 12.125 13.023438 12.136719 13.023438 12.144531 13.023438 C 12.234375 13.023438 12.289062 12.925781 12.28125 12.808594 C 12.261719 12.582031 12.261719 12.351562 12.28125 12.125 C 12.289062 12.007812 12.234375 11.910156 12.144531 11.910156 C 12.136719 11.910156 12.125 11.910156 12.113281 11.910156 C 12.027344 11.910156 11.941406 12.007812 11.933594 12.125 Z M 12.492188 12.152344 C 12.472656 12.378906 12.472656 12.609375 12.492188 12.839844 C 12.503906 12.957031 12.589844 13.050781 12.675781 13.050781 C 12.6875 13.050781 12.695312 13.050781 12.707031 13.050781 C 12.792969 13.050781 12.851562 12.957031 12.839844 12.839844 C 12.820312 12.609375 12.820312 12.378906 12.839844 12.152344 C 12.851562 12.035156 12.792969 11.941406 12.707031 11.941406 C 12.695312 11.941406 12.6875 11.941406 12.675781 11.941406 C 12.589844 11.941406 12.503906 12.035156 12.492188 12.152344 Z M 13.113281 12.195312 C 13.09375 12.421875 13.09375 12.652344 13.113281 12.882812 C 13.125 13 13.210938 13.09375 13.296875 13.09375 C 13.308594 13.09375 13.316406 13.09375 13.328125 13.09375 C 13.414062 13.09375 13.472656 13 13.460938 12.882812 C 13.441406 12.652344 13.441406 12.421875 13.460938 12.195312 C 13.472656 12.078125 13.414062 11.984375 13.328125 11.984375 C 13.316406 11.984375 13.308594 11.984375 13.296875 11.984375 C 13.210938 11.984375 13.125 12.078125 13.113281 12.195312 Z M 13.675781 12.222656 C 13.65625 12.453125 13.65625 12.683594 13.675781 12.910156 C 13.6875 13.027344 13.769531 13.121094 13.859375 13.121094 C 13.867188 13.121094 13.878906 13.121094 13.890625 13.121094 C 13.976562 13.121094 14.035156 13.027344 14.023438 12.910156 C 14.003906 12.683594 14.003906 12.453125 14.023438 12.222656 C 14.035156 12.105469 13.976562 12.011719 13.890625 12.011719 C 13.878906 12.011719 13.867188 12.011719 13.859375 12.011719 C 13.769531 12.011719 13.6875 12.105469 13.675781 12.222656 Z M 15.171875 12.28125 C 15.152344 12.507812 15.152344 12.738281 15.171875 12.96875 C 15.179688 13.085938 15.265625 13.179688 15.351562 13.179688 C 15.363281 13.179688 15.375 13.179688 15.382812 13.179688 C 15.472656 13.179688 15.527344 13.085938 15.519531 12.96875 C 15.5 12.738281 15.5 12.507812 15.519531 12.28125 C 15.527344 12.164062 15.472656 12.066406 15.382812 12.066406 C 15.375 12.066406 15.363281 12.066406 15.351562 12.066406 C 15.265625 12.070312 15.179688 12.164062 15.171875 12.28125 Z M 15.730469 12.308594 C 15.710938 12.539062 15.710938 12.765625 15.730469 12.996094 C 15.742188 13.113281 15.828125 13.207031 15.914062 13.207031 C 15.925781 13.207031 15.933594 13.207031 15.945312 13.207031 C 16.03125 13.207031 16.089844 13.113281 16.078125 12.996094 C 16.058594 12.765625 16.058594 12.539062 16.078125 12.308594 C 16.089844 12.191406 16.03125 12.097656 15.945312 12.097656 C 15.933594 12.097656 15.925781 12.097656 15.914062 12.097656 C 15.828125 12.097656 15.742188 12.191406 15.730469 12.308594 Z M 16.351562 12.351562 C 16.332031 12.582031 16.332031 12.808594 16.351562 13.039062 C 16.363281 13.15625 16.449219 13.25 16.535156 13.25 C 16.546875 13.25 16.554688 13.25 16.566406 13.25 C 16.652344 13.25 16.710938 13.15625 16.699219 13.039062 C 16.679688 12.808594 16.679688 12.582031 16.699219 12.351562 C 16.710938 12.234375 16.652344 12.140625 16.566406 12.140625 C 16.554688 12.140625 16.546875 12.140625 16.535156 12.140625 C 16.449219 12.140625 16.363281 12.234375 16.351562 12.351562 Z M 16.914062 12.382812 C 16.894531 12.609375 16.894531 12.839844 16.914062 13.066406 C 16.925781 13.183594 17.007812 13.277344 17.097656 13.277344 C 17.105469 13.277344 17.117188 13.277344 17.128906 13.277344 C 17.214844 13.277344 17.273438 13.183594 17.261719 13.066406 C 17.242188 12.839844 17.242188 12.609375 17.261719 12.382812 C 17.273438 12.261719 17.214844 12.167969 17.128906 12.167969 C 17.117188 12.167969 17.105469 12.167969 17.097656 12.167969 C 17.007812 12.167969 16.925781 12.261719 16.914062 12.382812 Z M 8.746094 12.375 C 8.746094 12.386719 8.746094 12.394531 8.75 12.40625 C 8.757812 12.464844 8.785156 12.511719 8.808594 12.546875 L 9.398438 13.308594 C 9.425781 13.347656 9.476562 13.359375 9.519531 13.335938 C 9.558594 13.308594 9.570312 13.257812 9.542969 13.21875 L 9.058594 12.464844 C 9.042969 12.4375 9.027344 12.414062 9.023438 12.390625 C 9.019531 12.359375 9.042969 12.320312 9.066406 12.277344 C 9.257812 11.957031 9.46875 11.640625 9.699219 11.34375 C 9.726562 11.308594 9.71875 11.253906 9.683594 11.226562 C 9.644531 11.195312 9.589844 11.203125 9.5625 11.242188 C 9.328125 11.542969 9.007812 11.851562 8.8125 12.183594 C 8.789062 12.226562 8.746094 12.296875 8.746094 12.375 Z M 9.617188 12.460938 C 9.617188 12.46875 9.621094 12.480469 9.621094 12.492188 C 9.628906 12.550781 9.660156 12.59375 9.683594 12.632812 L 10.269531 13.394531 C 10.296875 13.433594 10.351562 13.445312 10.390625 13.421875 C 10.429688 13.394531 10.441406 13.34375 10.414062 13.304688 L 9.933594 12.550781 C 9.914062 12.523438 9.898438 12.5 9.894531 12.476562 C 9.890625 12.445312 9.914062 12.40625 9.9375 12.363281 C 10.128906 12.039062 10.339844 11.726562 10.570312 11.429688 C 10.597656 11.394531 10.59375 11.339844 10.554688 11.3125 C 10.515625 11.28125 10.464844 11.289062 10.433594 11.328125 C 10.199219 11.628906 9.878906 11.9375 9.683594 12.269531 C 9.660156 12.3125 9.617188 12.378906 9.617188 12.460938 Z M 10.40625 12.460938 C 10.40625 12.46875 10.40625 12.480469 10.40625 12.492188 C 10.414062 12.550781 10.445312 12.59375 10.46875 12.632812 L 11.058594 13.394531 C 11.082031 13.433594 11.136719 13.445312 11.175781 13.421875 C 11.214844 13.394531 11.226562 13.34375 11.203125 13.304688 L 10.71875 12.550781 C 10.703125 12.523438 10.6875 12.5 10.683594 12.476562 C 10.679688 12.445312 10.699219 12.40625 10.726562 12.363281 C 10.914062 12.039062 11.125 11.726562 11.355469 11.429688 C 11.386719 11.394531 11.378906 11.339844 11.339844 11.3125 C 11.304688 11.28125 11.25 11.289062 11.21875 11.328125 C 10.988281 11.628906 10.664062 11.9375 10.472656 12.269531 C 10.445312 12.3125 10.40625 12.378906 10.40625 12.460938 Z M 18.375 12.890625 C 18.375 12.902344 18.375 12.910156 18.378906 12.921875 C 18.386719 12.980469 18.414062 13.027344 18.4375 13.0625 L 19.027344 13.828125 C 19.054688 13.867188 19.105469 13.878906 19.144531 13.851562 C 19.1875 13.828125 19.199219 13.773438 19.171875 13.734375 L 18.6875 12.980469 C 18.671875 12.957031 18.65625 12.929688 18.652344 12.910156 C 18.648438 12.878906 18.671875 12.835938 18.695312 12.796875 C 18.882812 12.472656 19.097656 12.15625 19.328125 11.863281 C 19.355469 11.824219 19.347656 11.769531 19.3125 11.742188 C 19.273438 11.714844 19.21875 11.71875 19.191406 11.757812 C 18.957031 12.058594 18.636719 12.371094 18.441406 12.699219 C 18.417969 12.742188 18.375 12.8125 18.375 12.890625 Z M 19.246094 12.976562 C 19.246094 12.988281 19.25 12.996094 19.25 13.007812 C 19.257812 13.066406 19.289062 13.113281 19.3125 13.148438 L 19.898438 13.910156 C 19.925781 13.953125 19.980469 13.964844 20.019531 13.9375 C 20.058594 13.914062 20.070312 13.859375 20.042969 13.820312 L 19.5625 13.066406 C 19.542969 13.039062 19.527344 13.015625 19.523438 12.992188 C 19.519531 12.960938 19.542969 12.921875 19.566406 12.878906 C 19.757812 12.558594 19.96875 12.242188 20.199219 11.949219 C 20.226562 11.910156 20.222656 11.855469 20.183594 11.828125 C 20.144531 11.796875 20.09375 11.804688 20.0625 11.84375 C 19.828125 12.144531 19.507812 12.457031 19.3125 12.785156 C 19.289062 12.828125 19.246094 12.898438 19.246094 12.976562 Z M 20.101562 12.785156 C 20.292969 12.457031 20.617188 12.144531 20.847656 11.84375 C 20.878906 11.804688 20.933594 11.796875 20.96875 11.828125 C 21.007812 11.855469 21.015625 11.910156 20.984375 11.949219 C 20.753906 12.242188 20.542969 12.558594 20.351562 12.878906 C 20.328125 12.921875 20.308594 12.960938 20.3125 12.992188 C 20.3125 13.015625 20.332031 13.039062 20.347656 13.066406 L 20.832031 13.820312 C 20.855469 13.859375 20.84375 13.914062 20.804688 13.9375 C 20.765625 13.964844 20.710938 13.953125 20.6875 13.910156 L 20.097656 13.148438 C 20.074219 13.113281 20.042969 13.066406 20.035156 13.007812 C 20.035156 12.996094 20.035156 12.988281 20.035156 12.976562 C 20.035156 12.898438 20.074219 12.828125 20.101562 12.785156 " fill-opacity="1" fill-rule="nonzero"/><path fill="#486bbc" d="M 20.640625 11.753906 L 23.746094 9.199219 C 23.808594 9.183594 23.804688 9.039062 23.738281 9.035156 L 11.046875 8.558594 L 6.914062 10.304688 L 20.640625 11.753906 " fill-opacity="1" fill-rule="nonzero"/><path fill="#efe4dc" d="M 23.460938 7.007812 C 23.246094 7.972656 23.332031 8.921875 23.511719 9.132812 C 23.511719 9.132812 20.816406 11.453125 20.253906 11.652344 L 19.953125 8.921875 L 23.460938 7.007812 " fill-opacity="1" fill-rule="nonzero"/><g clip-path="url(#9614e8ca6f)"><path fill="#486bbc" d="M 23.597656 6.949219 L 20.683594 8.929688 C 20.667969 8.941406 20.652344 8.949219 20.648438 8.96875 C 20.375 9.625 20.417969 10.15625 20.398438 10.535156 C 20.359375 11.355469 20.707031 11.617188 20.707031 11.617188 L 20.605469 11.6875 L 6.878906 10.789062 C 6.554688 10.777344 6.507812 10.632812 6.484375 10.449219 C 6.464844 10.269531 6.320312 8.136719 6.65625 7.882812 C 6.816406 7.761719 9.347656 6.558594 10.164062 6.5 L 23.621094 6.75 C 23.691406 6.761719 23.664062 6.914062 23.597656 6.949219 " fill-opacity="1" fill-rule="nonzero"/></g><path fill="#efe4dc" d="M 12.730469 10.328125 C 12.988281 10.628906 13.378906 10.804688 13.777344 10.800781 C 13.820312 10.796875 13.867188 10.792969 13.894531 10.769531 C 13.910156 10.753906 13.914062 10.738281 13.914062 10.722656 C 13.914062 10.71875 13.914062 10.714844 13.914062 10.710938 C 13.90625 10.640625 13.820312 10.5625 13.746094 10.523438 C 13.332031 10.308594 12.96875 10.183594 12.578125 10.125 C 12.628906 10.195312 12.679688 10.265625 12.730469 10.328125 Z M 14.527344 10.039062 C 14.53125 10.039062 14.53125 10.039062 14.535156 10.039062 C 14.539062 10.039062 14.542969 10.039062 14.546875 10.039062 C 14.71875 10.023438 14.890625 9.992188 15.054688 9.945312 C 15.164062 9.910156 15.289062 9.867188 15.378906 9.78125 C 15.453125 9.710938 15.496094 9.625 15.496094 9.539062 C 15.496094 9.519531 15.492188 9.496094 15.488281 9.476562 C 15.445312 9.332031 15.269531 9.261719 15.128906 9.28125 C 14.96875 9.304688 14.832031 9.414062 14.71875 9.515625 C 14.484375 9.730469 14.105469 9.929688 13.785156 9.992188 C 14.027344 10.042969 14.277344 10.058594 14.527344 10.039062 Z M 16.910156 10.800781 L 16.925781 10.804688 C 17.117188 10.839844 17.402344 10.894531 17.675781 10.789062 C 17.824219 10.726562 17.964844 10.574219 17.964844 10.414062 C 17.964844 10.402344 17.964844 10.394531 17.964844 10.382812 C 17.957031 10.335938 17.933594 10.300781 17.890625 10.269531 C 17.765625 10.191406 17.539062 10.195312 17.46875 10.214844 C 17.308594 10.261719 17.15625 10.3125 17.007812 10.359375 C 16.738281 10.453125 16.476562 10.539062 16.226562 10.566406 C 16.449219 10.664062 16.675781 10.753906 16.910156 10.800781 Z M 12.535156 9.4375 C 12.65625 9.472656 12.761719 9.542969 12.863281 9.609375 C 12.886719 9.621094 12.910156 9.636719 12.933594 9.652344 C 13.109375 9.761719 13.300781 9.851562 13.5 9.917969 C 13.824219 9.976562 14.371094 9.71875 14.660156 9.453125 C 14.78125 9.339844 14.933594 9.222656 15.117188 9.195312 C 15.296875 9.171875 15.515625 9.261719 15.570312 9.453125 C 15.605469 9.582031 15.554688 9.734375 15.4375 9.84375 C 15.332031 9.941406 15.199219 9.992188 15.078125 10.027344 C 15.019531 10.042969 14.957031 10.058594 14.894531 10.070312 C 15.125 10.113281 15.367188 10.179688 15.511719 10.246094 L 16.0625 10.492188 C 16.347656 10.492188 16.640625 10.394531 16.980469 10.28125 C 17.128906 10.230469 17.28125 10.179688 17.445312 10.132812 C 17.523438 10.109375 17.78125 10.097656 17.9375 10.199219 C 18.003906 10.242188 18.039062 10.300781 18.050781 10.371094 C 18.078125 10.59375 17.894531 10.792969 17.707031 10.867188 C 17.410156 10.984375 17.109375 10.925781 16.910156 10.886719 L 16.894531 10.882812 C 16.59375 10.824219 16.308594 10.699219 16.035156 10.574219 L 15.476562 10.324219 C 15.265625 10.226562 14.804688 10.117188 14.546875 10.125 C 13.96875 10.171875 13.378906 10.03125 12.886719 9.722656 C 12.863281 9.710938 12.839844 9.695312 12.816406 9.679688 C 12.714844 9.613281 12.621094 9.550781 12.511719 9.519531 C 12.328125 9.464844 12.125 9.449219 11.953125 9.476562 C 12.207031 9.570312 12.363281 9.804688 12.515625 10.027344 C 12.945312 10.085938 13.335938 10.214844 13.785156 10.445312 C 13.882812 10.496094 13.984375 10.597656 14 10.699219 C 14.007812 10.75 13.992188 10.796875 13.953125 10.832031 C 13.90625 10.875 13.835938 10.882812 13.777344 10.886719 C 13.355469 10.890625 12.941406 10.703125 12.667969 10.382812 C 12.589844 10.292969 12.519531 10.191406 12.453125 10.09375 C 12.453125 10.09375 12.453125 10.09375 12.453125 10.089844 C 12.453125 10.089844 12.449219 10.085938 12.449219 10.082031 C 12.296875 9.855469 12.152344 9.640625 11.914062 9.550781 C 11.652344 9.457031 11.363281 9.558594 11.085938 9.65625 C 11.011719 9.683594 10.933594 9.710938 10.859375 9.734375 C 10.320312 9.898438 9.722656 9.859375 9.210938 9.621094 C 9.195312 9.613281 9.1875 9.601562 9.1875 9.582031 C 9.1875 9.578125 9.1875 9.570312 9.191406 9.566406 C 9.199219 9.542969 9.226562 9.535156 9.246094 9.542969 C 9.738281 9.773438 10.316406 9.8125 10.835938 9.652344 C 10.90625 9.628906 10.984375 9.601562 11.058594 9.578125 C 11.289062 9.496094 11.527344 9.410156 11.761719 9.433594 C 12.019531 9.34375 12.328125 9.378906 12.535156 9.4375 Z M 13.632812 9.472656 C 13.707031 9.488281 13.789062 9.464844 13.855469 9.414062 C 13.917969 9.363281 13.957031 9.292969 13.960938 9.21875 C 13.960938 9.21875 13.960938 9.214844 13.960938 9.210938 C 13.960938 9.140625 13.925781 9.070312 13.863281 9.015625 C 13.804688 8.960938 13.726562 8.9375 13.65625 8.949219 C 13.570312 8.964844 13.472656 9.042969 13.421875 9.140625 C 13.386719 9.210938 13.378906 9.273438 13.402344 9.324219 C 13.425781 9.371094 13.527344 9.453125 13.632812 9.472656 Z M 13.304688 9.261719 C 13.304688 9.210938 13.316406 9.15625 13.347656 9.101562 C 13.410156 8.980469 13.527344 8.886719 13.640625 8.867188 C 13.738281 8.847656 13.839844 8.878906 13.921875 8.953125 C 14.003906 9.023438 14.050781 9.125 14.046875 9.222656 C 14.042969 9.320312 13.992188 9.414062 13.90625 9.480469 C 13.820312 9.546875 13.714844 9.578125 13.617188 9.558594 C 13.488281 9.535156 13.359375 9.433594 13.324219 9.363281 C 13.308594 9.332031 13.304688 9.296875 13.304688 9.261719 Z M 16.964844 9.777344 C 17.125 9.761719 17.265625 9.613281 17.269531 9.453125 C 17.269531 9.453125 17.269531 9.449219 17.269531 9.445312 C 17.269531 9.289062 17.140625 9.136719 16.984375 9.117188 C 16.933594 9.109375 16.863281 9.109375 16.800781 9.140625 C 16.617188 9.238281 16.613281 9.40625 16.609375 9.519531 C 16.609375 9.589844 16.652344 9.644531 16.6875 9.679688 C 16.757812 9.746094 16.871094 9.785156 16.964844 9.777344 Z M 16.527344 9.523438 C 16.527344 9.523438 16.527344 9.519531 16.527344 9.519531 C 16.527344 9.402344 16.53125 9.1875 16.761719 9.0625 C 16.84375 9.019531 16.933594 9.023438 16.996094 9.03125 C 17.199219 9.0625 17.363281 9.25 17.355469 9.457031 C 17.351562 9.664062 17.179688 9.84375 16.972656 9.863281 C 16.851562 9.871094 16.71875 9.824219 16.628906 9.738281 C 16.5625 9.679688 16.527344 9.601562 16.527344 9.523438 Z M 11.460938 10.355469 C 11.570312 10.375 11.671875 10.328125 11.746094 10.234375 C 11.761719 10.210938 11.785156 10.136719 11.789062 10.105469 C 11.789062 10.039062 11.75 9.996094 11.71875 9.96875 C 11.660156 9.917969 11.566406 9.890625 11.484375 9.90625 C 11.417969 9.914062 11.355469 9.957031 11.316406 10.019531 C 11.277344 10.082031 11.265625 10.15625 11.285156 10.222656 C 11.304688 10.285156 11.375 10.339844 11.460938 10.355469 Z M 11.191406 10.160156 C 11.191406 10.097656 11.207031 10.03125 11.246094 9.976562 C 11.296875 9.890625 11.378906 9.835938 11.46875 9.820312 C 11.578125 9.804688 11.695312 9.835938 11.777344 9.90625 C 11.839844 9.957031 11.871094 10.03125 11.871094 10.105469 C 11.871094 10.152344 11.84375 10.246094 11.8125 10.285156 C 11.71875 10.410156 11.585938 10.464844 11.445312 10.4375 C 11.328125 10.417969 11.230469 10.339844 11.203125 10.246094 C 11.195312 10.21875 11.191406 10.1875 11.191406 10.160156 Z M 15.160156 10.839844 C 15.234375 10.773438 15.257812 10.664062 15.238281 10.59375 C 15.226562 10.542969 15.171875 10.515625 15.140625 10.503906 C 15.042969 10.46875 14.910156 10.480469 14.839844 10.527344 C 14.78125 10.570312 14.75 10.664062 14.761719 10.75 C 14.765625 10.785156 14.78125 10.84375 14.835938 10.863281 C 14.972656 10.914062 15.085938 10.90625 15.160156 10.839844 Z M 14.675781 10.761719 C 14.671875 10.746094 14.671875 10.730469 14.671875 10.714844 C 14.671875 10.613281 14.71875 10.515625 14.789062 10.460938 C 14.878906 10.394531 15.042969 10.378906 15.171875 10.421875 C 15.253906 10.453125 15.308594 10.507812 15.324219 10.574219 C 15.347656 10.671875 15.316406 10.816406 15.214844 10.90625 C 15.148438 10.964844 15.019531 11.023438 14.808594 10.945312 C 14.734375 10.917969 14.6875 10.851562 14.675781 10.761719 Z M 18.417969 10.546875 C 18.417969 10.90625 18.449219 11.253906 18.523438 11.550781 L 18.777344 11.570312 C 18.566406 10.8125 18.667969 9.671875 18.871094 8.804688 C 18.789062 8.800781 18.707031 8.796875 18.625 8.789062 C 18.5 9.328125 18.417969 9.957031 18.417969 10.546875 Z M 7.707031 8.121094 C 7.613281 8.582031 7.550781 9.148438 7.550781 9.707031 C 7.550781 10.097656 7.582031 10.488281 7.652344 10.839844 L 7.902344 10.855469 C 7.722656 10.023438 7.789062 8.90625 7.953125 8.132812 C 7.867188 8.128906 7.785156 8.125 7.707031 8.121094 Z M 19.140625 10.546875 C 19.140625 10.925781 19.175781 11.289062 19.257812 11.601562 L 19.511719 11.617188 C 19.289062 10.875 19.382812 9.734375 19.582031 8.855469 C 19.503906 8.847656 19.421875 8.84375 19.335938 8.835938 C 19.21875 9.363281 19.140625 9.972656 19.140625 10.546875 Z M 8.410156 8.152344 C 8.488281 8.15625 8.570312 8.164062 8.65625 8.167969 C 8.5 8.96875 8.445312 10.09375 8.644531 10.90625 L 8.394531 10.886719 C 8.308594 10.511719 8.273438 10.082031 8.273438 9.652344 C 8.273438 9.125 8.328125 8.597656 8.410156 8.152344 " fill-opacity="1" fill-rule="nonzero"/><path fill="#efe4dc" d="M 11.105469 19.835938 L 10.4375 19.871094 C 10.335938 19.875 10.253906 19.800781 10.246094 19.703125 L 10.246094 19.699219 C 10.242188 19.601562 10.316406 19.519531 10.417969 19.511719 L 11.089844 19.476562 C 11.1875 19.472656 11.273438 19.546875 11.277344 19.648438 C 11.28125 19.746094 11.207031 19.832031 11.105469 19.835938 Z M 11.675781 18.453125 C 11.710938 18.449219 11.742188 18.464844 11.761719 18.492188 C 11.871094 18.679688 12.234375 19.40625 11.953125 20.472656 C 11.941406 20.511719 11.90625 20.535156 11.867188 20.535156 L 11.808594 20.535156 C 11.75 20.535156 11.707031 20.476562 11.730469 20.421875 C 11.839844 20.152344 12.039062 19.441406 11.609375 18.574219 C 11.585938 18.523438 11.617188 18.460938 11.675781 18.453125 Z M 12.164062 18.417969 C 12.199219 18.414062 12.230469 18.429688 12.25 18.460938 C 12.359375 18.648438 12.722656 19.371094 12.441406 20.441406 C 12.429688 20.476562 12.394531 20.503906 12.359375 20.503906 L 12.300781 20.503906 C 12.238281 20.503906 12.195312 20.441406 12.21875 20.386719 C 12.328125 20.117188 12.527344 19.410156 12.097656 18.542969 C 12.074219 18.488281 12.105469 18.425781 12.164062 18.417969 Z M 12.660156 18.398438 C 12.695312 18.394531 12.726562 18.410156 12.746094 18.441406 C 12.855469 18.625 13.21875 19.351562 12.9375 20.417969 C 12.925781 20.457031 12.894531 20.484375 12.855469 20.484375 L 12.796875 20.484375 C 12.734375 20.484375 12.691406 20.421875 12.714844 20.367188 C 12.824219 20.097656 13.023438 19.386719 12.597656 18.523438 C 12.570312 18.46875 12.601562 18.40625 12.660156 18.398438 Z M 22.625 19.121094 L 22.296875 18.847656 L 22.597656 18.527344 L 22.925781 18.800781 Z M 22.097656 18.902344 L 22.054688 18.863281 L 22.097656 18.820312 L 22.140625 18.859375 Z M 21.597656 19.195312 L 21.269531 18.921875 L 21.570312 18.601562 L 21.898438 18.875 Z M 21.074219 18.976562 L 21.027344 18.941406 L 21.070312 18.894531 L 21.113281 18.933594 Z M 20.570312 19.269531 L 20.246094 18.996094 L 20.546875 18.675781 L 20.871094 18.949219 Z M 20.046875 19.050781 L 20 19.015625 L 20.042969 18.96875 L 20.089844 19.007812 Z M 19.542969 19.34375 L 19.21875 19.070312 L 19.519531 18.75 L 19.84375 19.027344 Z M 19.019531 19.128906 L 18.972656 19.089844 L 19.015625 19.042969 L 19.0625 19.082031 Z M 18.515625 19.421875 L 18.191406 19.144531 L 18.492188 18.828125 L 18.820312 19.101562 Z M 17.992188 19.203125 L 17.949219 19.164062 L 17.992188 19.117188 L 18.035156 19.15625 Z M 17.492188 19.496094 L 17.164062 19.21875 L 17.464844 18.902344 L 17.792969 19.175781 Z M 16.96875 19.277344 L 16.921875 19.238281 L 16.964844 19.195312 L 17.011719 19.230469 Z M 16.464844 19.570312 L 16.140625 19.296875 L 16.441406 18.976562 L 16.765625 19.25 Z M 15.941406 19.351562 L 15.894531 19.3125 L 15.9375 19.269531 L 15.984375 19.308594 Z M 15.4375 19.644531 L 15.113281 19.371094 L 15.414062 19.050781 L 15.738281 19.324219 Z M 14.914062 19.425781 L 14.871094 19.386719 L 14.910156 19.34375 L 14.957031 19.382812 Z M 14.414062 19.71875 L 14.085938 19.445312 L 14.386719 19.125 L 14.714844 19.398438 Z M 23.152344 18.851562 L 23.082031 18.789062 L 23.144531 18.71875 C 23.164062 18.699219 23.167969 18.660156 23.15625 18.632812 C 23.140625 18.609375 23.113281 18.601562 23.09375 18.625 L 23 18.722656 L 22.617188 18.402344 C 22.601562 18.386719 22.582031 18.390625 22.570312 18.40625 L 22.214844 18.777344 L 22.117188 18.695312 C 22.101562 18.679688 22.082031 18.683594 22.066406 18.699219 L 21.972656 18.796875 L 21.589844 18.476562 C 21.574219 18.464844 21.554688 18.464844 21.542969 18.480469 L 21.191406 18.855469 L 21.089844 18.769531 C 21.074219 18.753906 21.054688 18.757812 21.039062 18.773438 L 20.945312 18.871094 L 20.566406 18.550781 C 20.550781 18.539062 20.53125 18.539062 20.515625 18.554688 L 20.164062 18.929688 L 20.0625 18.84375 C 20.046875 18.832031 20.027344 18.832031 20.011719 18.847656 L 19.917969 18.945312 L 19.539062 18.625 C 19.523438 18.613281 19.503906 18.613281 19.488281 18.628906 L 19.136719 19.003906 L 19.035156 18.917969 C 19.019531 18.90625 19 18.90625 18.988281 18.921875 L 18.894531 19.019531 L 18.511719 18.699219 C 18.496094 18.6875 18.476562 18.6875 18.460938 18.703125 L 18.109375 19.078125 L 18.011719 18.992188 C 17.996094 18.980469 17.976562 18.980469 17.960938 18.996094 L 17.867188 19.09375 L 17.488281 18.773438 C 17.472656 18.761719 17.449219 18.761719 17.4375 18.777344 L 17.085938 19.152344 L 16.984375 19.066406 C 16.96875 19.054688 16.949219 19.054688 16.933594 19.070312 L 16.839844 19.171875 L 16.460938 18.851562 C 16.445312 18.835938 16.425781 18.839844 16.410156 18.855469 L 16.058594 19.226562 L 15.957031 19.144531 C 15.941406 19.128906 15.921875 19.128906 15.90625 19.144531 L 15.816406 19.246094 L 15.433594 18.925781 C 15.417969 18.910156 15.398438 18.914062 15.382812 18.929688 L 15.03125 19.300781 L 14.933594 19.21875 C 14.914062 19.203125 14.894531 19.207031 14.882812 19.222656 L 14.789062 19.320312 L 14.40625 19 C 14.390625 18.984375 14.371094 18.988281 14.359375 19.003906 L 14.007812 19.375 L 13.90625 19.292969 C 13.882812 19.273438 13.855469 19.285156 13.84375 19.3125 C 13.832031 19.339844 13.839844 19.378906 13.859375 19.394531 L 13.929688 19.457031 L 13.863281 19.527344 C 13.84375 19.546875 13.84375 19.585938 13.855469 19.613281 C 13.867188 19.628906 13.878906 19.636719 13.890625 19.636719 C 13.902344 19.636719 13.910156 19.632812 13.917969 19.621094 L 14.011719 19.523438 L 14.394531 19.84375 C 14.398438 19.851562 14.40625 19.851562 14.417969 19.851562 C 14.425781 19.851562 14.433594 19.847656 14.441406 19.839844 L 14.792969 19.46875 L 14.894531 19.550781 C 14.910156 19.566406 14.929688 19.5625 14.945312 19.546875 L 15.039062 19.449219 L 15.417969 19.769531 C 15.433594 19.78125 15.453125 19.78125 15.46875 19.765625 L 15.820312 19.390625 L 15.921875 19.476562 C 15.9375 19.492188 15.957031 19.488281 15.972656 19.472656 L 16.066406 19.375 L 16.445312 19.695312 C 16.460938 19.707031 16.480469 19.707031 16.496094 19.691406 L 16.847656 19.316406 L 16.949219 19.402344 C 16.964844 19.414062 16.984375 19.414062 16.996094 19.398438 L 17.089844 19.300781 L 17.472656 19.621094 C 17.488281 19.632812 17.507812 19.632812 17.519531 19.617188 L 17.875 19.242188 L 17.972656 19.328125 C 17.988281 19.339844 18.007812 19.339844 18.023438 19.324219 L 18.117188 19.226562 L 18.496094 19.546875 C 18.511719 19.558594 18.535156 19.558594 18.546875 19.542969 L 18.898438 19.167969 L 19 19.253906 C 19.015625 19.265625 19.035156 19.265625 19.050781 19.25 L 19.144531 19.152344 L 19.523438 19.472656 C 19.539062 19.484375 19.558594 19.484375 19.574219 19.46875 L 19.925781 19.09375 L 20.027344 19.179688 C 20.042969 19.191406 20.0625 19.191406 20.078125 19.175781 L 20.167969 19.074219 L 20.550781 19.394531 C 20.566406 19.410156 20.585938 19.40625 20.601562 19.394531 L 20.953125 19.019531 L 21.054688 19.105469 C 21.070312 19.117188 21.089844 19.117188 21.101562 19.101562 L 21.195312 19 L 21.578125 19.320312 C 21.59375 19.335938 21.613281 19.332031 21.625 19.316406 L 21.980469 18.945312 L 22.078125 19.027344 C 22.09375 19.042969 22.113281 19.039062 22.128906 19.023438 L 22.222656 18.925781 L 22.601562 19.246094 C 22.617188 19.261719 22.640625 19.257812 22.652344 19.242188 L 23.003906 18.871094 L 23.105469 18.953125 C 23.125 18.972656 23.152344 18.960938 23.167969 18.933594 C 23.179688 18.90625 23.171875 18.867188 23.152344 18.851562 " fill-opacity="1" fill-rule="nonzero"/></svg>