<svg xmlns="http://www.w3.org/2000/svg" xmlns:xlink="http://www.w3.org/1999/xlink" width="40" zoomAndPan="magnify" viewBox="0 0 30 30.000001" height="40" preserveAspectRatio="xMidYMid meet" version="1.0"><defs><clipPath id="8646c6bfc5"><path d="M 7.304688 6.824219 L 22.546875 6.824219 L 22.546875 22.066406 L 7.304688 22.066406 Z M 7.304688 6.824219 " clip-rule="nonzero"/></clipPath></defs><g clip-path="url(#8646c6bfc5)"><path fill="#000000" d="M 14.925781 6.824219 C 10.726562 6.824219 7.304688 10.242188 7.304688 14.445312 C 7.304688 18.644531 10.726562 22.066406 14.925781 22.066406 C 19.128906 22.066406 22.546875 18.644531 22.546875 14.445312 C 22.546875 10.242188 19.128906 6.824219 14.925781 6.824219 Z M 19.75 18.949219 C 18.753906 17.253906 16.933594 16.1875 14.925781 16.1875 C 12.921875 16.1875 11.101562 17.253906 10.105469 18.949219 C 9 17.769531 8.324219 16.183594 8.324219 14.445312 C 8.324219 10.800781 11.285156 7.839844 14.925781 7.839844 C 18.570312 7.839844 21.53125 10.800781 21.53125 14.445312 C 21.53125 16.183594 20.855469 17.769531 19.75 18.949219 Z M 19.75 18.949219 " fill-opacity="1" fill-rule="nonzero"/></g><path fill="#000000" d="M 14.925781 9.074219 C 13.214844 9.074219 11.820312 10.46875 11.820312 12.183594 C 11.820312 13.894531 13.214844 15.289062 14.925781 15.289062 C 16.640625 15.289062 18.035156 13.894531 18.035156 12.183594 C 18.035156 10.46875 16.640625 9.074219 14.925781 9.074219 Z M 14.925781 9.074219 " fill-opacity="1" fill-rule="nonzero"/></svg>