<svg xmlns="http://www.w3.org/2000/svg" xmlns:xlink="http://www.w3.org/1999/xlink" width="40" zoomAndPan="magnify" viewBox="0 0 30 30.000001" height="40" preserveAspectRatio="xMidYMid meet" version="1.0"><defs><clipPath id="d407ff0f7a"><path d="M 7.738281 6.296875 L 22.253906 6.296875 L 22.253906 22.992188 L 7.738281 22.992188 Z M 7.738281 6.296875 " clip-rule="nonzero"/></clipPath></defs><g clip-path="url(#d407ff0f7a)"><path fill="#000000" d="M 22.234375 22.617188 C 22.203125 22.324219 20.949219 10.554688 20.945312 10.523438 C 20.929688 10.359375 20.792969 10.234375 20.625 10.234375 L 18.054688 10.234375 L 18.054688 9.414062 C 18.054688 7.703125 16.683594 6.3125 14.996094 6.3125 C 13.3125 6.3125 11.941406 7.703125 11.941406 9.414062 L 11.941406 10.234375 L 9.367188 10.234375 C 9.203125 10.234375 9.0625 10.359375 9.046875 10.523438 C 9.046875 10.53125 7.761719 22.613281 7.761719 22.617188 C 7.738281 22.8125 7.886719 22.980469 8.078125 22.980469 L 21.914062 22.980469 C 22.105469 22.980469 22.253906 22.8125 22.234375 22.617188 Z M 12.582031 9.414062 C 12.582031 8.0625 13.667969 6.964844 14.996094 6.964844 C 16.328125 6.964844 17.410156 8.0625 17.410156 9.414062 L 17.410156 10.234375 L 12.582031 10.234375 Z M 9.65625 10.886719 L 11.941406 10.886719 L 11.941406 12.195312 L 11.296875 12.195312 C 11.121094 12.195312 10.976562 12.339844 10.976562 12.519531 C 10.976562 12.703125 11.121094 12.847656 11.296875 12.847656 L 13.226562 12.847656 C 13.40625 12.847656 13.550781 12.703125 13.550781 12.519531 C 13.550781 12.339844 13.40625 12.195312 13.226562 12.195312 L 12.582031 12.195312 L 12.582031 10.886719 L 17.410156 10.886719 L 17.410156 12.195312 L 16.765625 12.195312 C 16.589844 12.195312 16.445312 12.339844 16.445312 12.519531 C 16.445312 12.703125 16.589844 12.847656 16.765625 12.847656 L 18.695312 12.847656 C 18.875 12.847656 19.019531 12.703125 19.019531 12.519531 C 19.019531 12.339844 18.875 12.195312 18.695312 12.195312 L 18.054688 12.195312 L 18.054688 10.886719 L 20.339844 10.886719 C 20.339844 10.898438 20.730469 14.570312 21.070312 17.75 L 8.925781 17.75 C 9.261719 14.578125 9.652344 10.921875 9.65625 10.886719 Z M 8.4375 22.324219 C 8.441406 22.292969 8.507812 21.652344 8.613281 20.691406 L 21.382812 20.691406 C 21.480469 21.636719 21.550781 22.269531 21.554688 22.324219 Z M 8.4375 22.324219 " fill-opacity="1" fill-rule="nonzero"/></g></svg>